<?xml version="1.0" encoding="utf-8"?>
<!-- Generator: Adobe Illustrator 16.0.0, SVG Export Plug-In . SVG Version: 6.00 Build 0)  -->
<!DOCTYPE svg PUBLIC "-//W3C//DTD SVG 1.1//EN" "http://www.w3.org/Graphics/SVG/1.1/DTD/svg11.dtd">
<svg version="1.1" id="Calque_1" xmlns="http://www.w3.org/2000/svg" xmlns:xlink="http://www.w3.org/1999/xlink" x="0px" y="0px"
	 width="181px" height="155px" viewBox="211.5 12.5 181 155" enable-background="new 211.5 12.5 181 155" xml:space="preserve">
<g>
	<path d="M300.92,71.76c-16.192,0-34.224-3.312-42.136-11.592c-1.104-1.104-0.92-2.76,0-3.864c1.104-1.104,2.76-0.92,3.864,0
		c6.624,6.992,25.944,11.04,45.631,9.568c15.457-1.104,27.232-5.336,31.465-11.408c0.92-1.288,2.576-1.472,3.68-0.552
		c1.288,0.92,1.473,2.576,0.553,3.68c-5.336,7.36-18.217,12.328-35.513,13.616C306.256,71.576,303.68,71.76,300.92,71.76z"/>
</g>
<path d="M367.473,97.272c-3.939-5.302-10.604-7.12-19.996-5.15c-2.575,0.454-4.849,1.212-7.271,2.272
	c2.575-10.3,5.757-21.056,7.574-27.57c1.212-4.393,1.515-5.302,1.515-5.757c0.909-5.302,0.909-10.755-4.09-15.148
	c-7.271-6.211-22.874-12.422-41.507-12.422c-15.3,0-29.691,4.242-41.658,12.27c-7.12,4.696-4.696,14.24-3.333,17.572
	c3.939,8.483,6.06,21.056,7.271,30.6c-0.151,0-0.151,0-0.303-0.151c-5.302-1.667-14.846-3.939-20.451-0.909
	c-8.786,4.847-11.058,13.482-10.755,22.874c0.303,10.452,7.12,19.845,18.33,25.147c9.695,4.695,20.147,5.301,28.025,5.301
	c0.454,0,0.909,0,1.363,0c3.03,0.152,5.908,0.303,8.787,0.303c41.507,0,73.925-19.844,78.166-27.418
	C370.198,117.117,373.077,104.998,367.473,97.272z M264.463,49.251c14.239-9.392,29.236-11.361,39.386-11.361
	c17.572,0,31.964,5.756,38.629,11.361c2.878,2.423,3.635,5.453,2.727,11.058c-0.151,0.303-0.757,2.575-1.515,5.302
	c-2.121,7.271-5.757,19.996-8.635,31.509c-3.029,1.818-5.605,4.09-8.18,6.362c-0.304,0.151-0.606,0.151-0.909,0.303
	c-0.606,0.151-1.212,0.303-1.818,0.605c-0.455,0.152-1.061,0.303-1.515,0.455c-0.606,0.151-1.212,0.303-1.97,0.455
	c-0.606,0.151-1.212,0.303-1.817,0.303c-0.605,0.151-1.212,0.303-1.818,0.303c-0.605,0.151-1.211,0.151-1.969,0.303
	c-0.605,0.152-1.211,0.152-1.818,0.303c-0.757,0.151-1.514,0.151-2.121,0.303c-0.605,0-1.06,0.151-1.665,0.151
	c-0.909,0-1.667,0.152-2.576,0.152c-0.454,0-0.908,0-1.362,0.151c-1.363,0-2.576,0.151-3.939,0.151
	c-1.212,0-10.907-0.151-18.178-2.121c-5.302-1.515-9.847-3.636-9.998-3.636c-0.455-0.151-0.757-0.454-1.212-0.606
	c-0.303-0.151-0.454-0.303-0.757-0.455c-1.211-9.695-3.333-27.873-8.634-39.234C262.796,61.219,259.312,52.887,264.463,49.251z
	 M280.975,141.809c-7.877,0-17.27-0.605-26.207-4.848c-9.695-4.545-15.603-12.573-15.906-21.359
	c-0.151-7.877,1.061-14.845,8.635-18.936c3.938-2.121,12.27-0.455,16.966,1.212c0.757,0.303,1.515,0.455,2.272,0.757
	c0,0.606,0.151,1.212,0.151,1.818l0.303,3.03c0.151,1.666,0.303,3.333,0.455,4.544c1.06,8.029,1.515,8.635,1.667,9.09
	c0.909,1.363,1.969,2.574,3.181,3.635c0,0,5.454,4.09,11.361,5.908c6.514,2.121,14.694,2.574,16.663,2.574
	c2.424,0,4.696-0.15,7.119-0.303c-0.302,0.303-0.453,0.607-0.757,0.91l-0.302,0.303
	C302.182,134.689,295.365,141.809,280.975,141.809z M365.352,116.813c-2.727,5.151-29.389,22.571-66.199,24.995
	c5-2.727,8.332-6.211,10.756-8.635l0.303-0.303c1.212-1.213,2.574-3.332,4.394-6.362c5.907-9.392,16.966-26.662,33.629-29.994
	c2.121-0.455,4.091-0.606,5.757-0.606c4.393,0,7.726,1.363,9.694,4.09C368.078,105.452,365.957,115.602,365.352,116.813z"/>
</svg>
